<?xml version="1.0" encoding="UTF-8"?>
<svg width="102px" height="48px" viewBox="0 0 102 48" version="1.1" xmlns="http://www.w3.org/2000/svg" xmlns:xlink="http://www.w3.org/1999/xlink">
    <!-- Generator: Sketch 54.1 (76490) - https://sketchapp.com -->
    <title>Banco PAN - 616161 e azul</title>
    <desc>Created with Sketch.</desc>
    <g id="Mega-menu" stroke="none" stroke-width="1" fill="none" fill-rule="evenodd">
        <g id="Menu" transform="translate(-164.000000, -24.000000)" fill-rule="nonzero">
            <g id="Banco-PAN---616161-e-azul" transform="translate(164.000000, 24.000000)">
                <path d="M49.9042001,37.8338007 L45.8231423,37.8338007 L45.8231423,32.1770882 L49.9042001,32.1770882 C51.8332536,32.206562 53.1487854,33.2956588 53.1487854,34.9994064 C53.1487854,36.7035635 51.8332536,37.8338007 49.9042001,37.8338007 M50.4595429,28 L41,28 L41,48 L45.8231423,48 L45.8231423,42.2751295 L50.4302501,42.2751295 C55.5166208,42.2751295 58,38.6615224 58,34.9994064 C58,31.3374951 55.5455068,28 50.4595429,28" id="Fill-1" fill="#414141"></path>
                <polygon id="Fill-3" fill="#414141" points="96.0833505 40.2057506 86.9168558 28 82 28 82 48 86.9168558 48 86.9168558 35.7647227 96.0833505 48 101 48 101 28 96.0833505 28"></polygon>
                <path d="M43.2542217,21.9264505 L43.2542217,19.9852156 L45.2063193,19.9852156 C46.0999177,19.9852156 46.567136,20.2204415 46.567136,20.9559366 C46.567136,21.6030149 46.1134659,21.9264505 45.2063193,21.9264505 L43.2542217,21.9264505 Z M43.2542217,16.0588479 L45.0551604,16.0588479 C45.9210819,16.0588479 46.3335269,16.3822835 46.3335269,17.0587651 C46.3335269,17.8381579 46.0312092,18.147099 45.0551604,18.147099 L43.2542217,18.147099 L43.2542217,16.0588479 Z M49,21.0882511 C49,20.0148259 48.5052983,19.1470162 47.5981516,18.6616557 C47.8042774,18.4999379 48.4778149,17.7795585 48.4778149,16.7500311 C48.4778149,15.1471404 47.6256351,14 44.9177433,14 L41,14 L41,24 L45.4676054,24 C48.0243383,24 49,22.720545 49,21.0882511 L49,21.0882511 Z" id="Fill-5" fill="#414141"></path>
                <polygon id="Fill-7" fill="#414141" points="68.4480842 17.8823432 73.5521247 24 76 24 76 14 73.5521247 14 73.5521247 20.1029549 68.4480842 14 66 14 66 24 68.4480842 24"></polygon>
                <path d="M89,22.0178071 L87.0116466,20.652461 C86.5358527,21.2294918 85.8143455,21.5968387 85.0076604,21.5968387 C83.5716608,21.5968387 82.407028,20.4339736 82.407028,18.9991997 C82.407028,17.5658263 83.5716608,16.4031613 85.0076604,16.4031613 C85.8115397,16.4031613 86.5328464,16.7689076 87.0074378,17.3431373 L88.9957912,15.9763906 C88.0810805,14.7741096 86.6352603,14 85.0076604,14 C82.240881,14 80,16.2386955 80,18.9991997 C80,21.7611044 82.240881,24 85.0076604,24 C86.6380662,24 88.0854897,23.2228892 89,22.0178071" id="Fill-9" fill="#414141"></path>
                <path d="M97,16.402001 C98.4337455,16.402001 99.5965502,17.5661831 99.5965502,18.9998999 C99.5965502,20.4336168 98.4337455,21.5961981 97,21.5961981 C95.5662545,21.5961981 94.4034498,20.4336168 94.4034498,18.9998999 C94.4034498,17.5661831 95.5662545,16.402001 97,16.402001 M97,24 C99.7616361,24 102,21.7614807 102,18.9998999 C102,16.2383192 99.7616361,14 97,14 C94.2383639,14 92,16.2383192 92,18.9998999 C92,21.7614807 94.2383639,24 97,24" id="Fill-11" fill="#414141"></path>
                <path d="M57.5383517,16.735179 L58.8906276,20.0545007 C58.4400703,20.1234547 57.9820641,20.1605202 57.5240579,20.1605202 C57.0664544,20.1605202 56.6130786,20.124283 56.1659437,20.0561572 L57.5383517,16.735179 Z M55.3056974,22.1369971 C56.0324677,22.2869153 56.7741357,22.363738 57.5240579,22.363738 C58.191237,22.363738 58.860228,22.3028596 59.5125094,22.1829665 C59.5878036,22.1690928 59.6630978,22.1512849 59.738392,22.1357547 L60.4979776,24 L63,24 L58.8251981,14 L56.2086239,14 L52,24 L54.535643,24 L55.3056974,22.1369971 Z" id="Fill-13" fill="#414141"></path>
                <path d="M68,40.4051825 C67.0700087,40.4051825 66.1480122,40.3319074 65.2384076,40.1939538 L68.0291809,33.4706593 L70.778981,40.1904742 C69.8631805,40.3300653 68.9313904,40.4051825 68,40.4051825 L68,40.4051825 Z M65.3577295,28 L57,48 L61.9975289,48 L63.5441166,44.2740242 C65.0041609,44.5738789 66.4941856,44.7273881 68.0001999,44.7273881 C69.3407224,44.7273881 70.6846428,44.6056041 71.9941856,44.365925 C72.1456865,44.3380887 72.2967876,44.3024746 72.4482884,44.2713634 L73.9740897,48 L79,48 L70.6136892,28 L65.3577295,28 Z" id="Fill-15" fill="#414141"></path>
                <path d="M14.499897,32.0463035 C11.2197613,32.0463035 8.5535183,29.4320423 8.5535183,26.2163072 C8.5535183,23.0001683 11.2197613,20.386109 14.499897,20.386109 C17.7802387,20.386109 20.4464817,23.0001683 20.4464817,26.2163072 C20.4464817,29.4320423 17.7802387,32.0463035 14.499897,32.0463035 M14.499897,12 C6.50425718,12 0,18.376956 0,26.2163072 L0,48 L8.5535183,48 L8.5535183,39.2030151 L9.22672045,39.4618568 C10.9096229,40.1057307 12.6819011,40.4324124 14.499897,40.4324124 C22.4957428,40.4324124 29,34.0554565 29,26.2163072 C29,18.376956 22.4957428,12 14.499897,12" id="Fill-17" fill="#414141"></path>
                <polygon id="Fill-19" fill="#00C5FF" points="0 8 8 8 8 0 0 0"></polygon>
            </g>
        </g>
    </g>
</svg>