<svg viewBox="0 0 59 40" fill="none" xmlns="http://www.w3.org/2000/svg" class="next-brand__symbol"><mask id="mask0" mask-type="alpha" maskUnits="userSpaceOnUse" x="15" y="0"><path fill-rule="evenodd" clip-rule="evenodd" d="M16.2016 1.13497C15.3876 2.15072 15.5429 3.64078 16.5479 4.46349L46.287 28.7974C47.2923 29.6199 48.767 29.4637 49.5813 28.448C50.3953 27.432 50.2405 25.9422 49.2352 25.1195L19.4959 0.785038C19.0622 0.4302 18.5412 0.257812 18.0234 0.257812C17.341 0.257812 16.6646 0.557425 16.2016 1.13497Z" fill="white"></path></mask><path fill-rule="evenodd" clip-rule="evenodd" d="M16.2016 1.13497C15.3876 2.15072 15.5429 3.64078 16.5479 4.46349L46.287 28.7974C47.2923 29.6199 48.767 29.4637 49.5813 28.448C50.3953 27.432 50.2405 25.9422 49.2352 25.1195L19.4959 0.785038C19.0622 0.4302 18.5412 0.257812 18.0234 0.257812C17.341 0.257812 16.6646 0.557425 16.2016 1.13497Z" fill="url(#paint0_linear)"></path><path fill-rule="evenodd" clip-rule="evenodd" d="M47.7638 29.3232C47.406 29.3232 47.0428 29.2419 46.7003 29.0703C45.5149 28.4755 45.0314 27.0229 45.6194 25.8252L54.2382 8.28453C54.8264 7.08685 56.2641 6.59782 57.4497 7.19266C58.6349 7.78698 59.1186 9.23988 58.5304 10.4373L49.9118 27.9782C49.4932 28.8301 48.6452 29.3232 47.7638 29.3232Z" fill="#1E3C3C"></path><mask id="mask1" mask-type="alpha" maskUnits="userSpaceOnUse" x="0" y="0"><path fill-rule="evenodd" clip-rule="evenodd" d="M0 0.263672H20.4189V36.909H0V0.263672Z" fill="white"></path></mask><path fill-rule="evenodd" clip-rule="evenodd" d="M2.39476 36.909C2.03693 36.909 1.67373 36.8277 1.33123 36.6561C0.145862 36.0615 -0.337887 34.6086 0.250326 33.4109L15.8761 1.60884C16.4646 0.411163 17.9023 -0.0778697 19.0877 0.516711C20.273 1.11129 20.757 2.56419 20.1686 3.76187L4.54277 35.5642C4.12415 36.4158 3.27618 36.909 2.39476 36.909Z" fill="#00FF5F"></path><mask id="mask2" mask-type="alpha" maskUnits="userSpaceOnUse" x="0" y="6"><path fill-rule="evenodd" clip-rule="evenodd" d="M55.3834 7.15932L1.49517 32.3766C0.321298 32.926 -0.189524 34.3327 0.354247 35.5185C0.897506 36.7046 2.29001 37.2207 3.46362 36.6716L57.3516 11.454C58.5257 10.9046 59.0363 9.49816 58.493 8.3121C58.0966 7.4481 57.2504 6.93945 56.3662 6.93945C56.0367 6.93971 55.7019 7.01016 55.3834 7.15932Z" fill="white"></path></mask><path fill-rule="evenodd" clip-rule="evenodd" d="M55.3834 7.15932L1.49517 32.3766C0.321298 32.926 -0.189524 34.3327 0.354247 35.5185C0.897506 36.7046 2.29001 37.2207 3.46362 36.6716L57.3516 11.454C58.5257 10.9046 59.0363 9.49816 58.493 8.3121C58.0966 7.4481 57.2504 6.93945 56.3662 6.93945C56.0367 6.93971 55.7019 7.01016 55.3834 7.15932Z" fill="url(#paint1_linear)"></path><defs><linearGradient id="paint0_linear" x1="11.9639" y1="12.6036" x2="27.0432" y2="27.6774" gradientUnits="userSpaceOnUse"><stop stop-color="#00FF5E"></stop><stop offset="1" stop-color="#1D3B3B"></stop></linearGradient><linearGradient id="paint1_linear" x1="39.4217" y1="28.1667" x2="50.1363" y2="9.88944" gradientUnits="userSpaceOnUse"><stop stop-color="#00FF5E"></stop><stop offset="1" stop-color="#1D3B3B"></stop></linearGradient></defs></svg>
