<svg id="Layer_1" data-name="Layer 1" xmlns="http://www.w3.org/2000/svg" viewBox="0 0 400 300" width="406" height="306" class="illustration"><title>#119_analyzing process_twocolour</title><rect x="86.59" y="43.94" width="231.67" height="163.25" fill="#e6e6e6"></rect><circle cx="279.54" cy="111.2" r="10.3" fill="#ffd200" opacity="0.2"></circle><polyline points="114.46 136 140.75 92 171.76 133.25 195.39 109.66 200 128 230.5 95.55 253.75 136 279.54 111.2" fill="none" stroke="#24285b" stroke-linecap="round" stroke-linejoin="round" stroke-width="2"></polyline><path d="M164.33,123.46s-24.15-3.93-27.07,25,2,42.24,2,42.24L123,207.19h89.43l-3.9-44.86s28.49,30,44.22,25.34,38.92-27.2,28.58-62.1l-23.66,35.1L238,156.35,219.5,128l-21.86-14Z" opacity="0.08"></path><circle cx="104.26" cy="60.26" r="5.16" fill="#24285b"></circle><circle cx="279.54" cy="111.2" r="5.16" fill="#ffd200"></circle><circle cx="230.57" cy="95.55" r="5.16" fill="#68e1fd"></circle><circle cx="253.57" cy="134.75" r="5.16" fill="#68e1fd"></circle><circle cx="140.82" cy="92" r="5.16" fill="#68e1fd"></circle><circle cx="114.53" cy="136" r="5.16" fill="#68e1fd"></circle><circle cx="119.62" cy="60.26" r="5.16" fill="#68e1fd"></circle><circle cx="134.09" cy="60.26" r="5.16" fill="#ffd200"></circle><path d="M164.44,116.15S140.67,134,153.33,172.33,193.09,192,193.09,192V160.67Z" fill="#68e1fd"></path><path d="M164.44,116.15S140.67,134,153.33,172.33,193.09,192,193.09,192V160.67Z" fill="#fff" opacity="0.46"></path><path d="M197.26,87.44s-10.59-3.07-14.87,3.79,5.05,18.71-3.95,26,25.67,6.23,25.67,6.23l-5.75-18.52,2.53-13.42Z" opacity="0.08"></path><ellipse cx="206.94" cy="254.72" rx="134.12" ry="12.71" fill="#e6e6e6" opacity="0.45"></ellipse><path d="M224.7,248.72l4.78,3.73a1.13,1.13,0,0,1-.7,2h-6.05a3.24,3.24,0,0,1-3.23-3.24v-2.51Z" fill="#68e1fd"></path><rect x="154.38" y="179.81" width="34.76" height="27.54" transform="translate(-68.82 98.21) rotate(-26.79)" fill="#ffd200"></rect><path d="M173.67,248.72l-4.77,3.73a1.13,1.13,0,0,0,.69,2h6a3.24,3.24,0,0,0,3.24-3.24v-2.51Z" fill="#68e1fd"></path><path d="M193.09,111.2l.83-13.53s1-8.71,5.33-7.14,8.91,10.16,6.56,12.83c-1.27,1.44-2.6.56-4.31.72-1.47.14-1.21-.08-1.21,1.4v5.17Z" fill="#f4a28c"></path><path d="M188.75,110.54s-27.18-2.42-30.73,15.92,21.74,53,21.74,53L215,178.08S269.76,101.17,188.75,110.54Z" fill="#68e1fd"></path><path d="M212.73,118S191.65,130.67,202,150c6.65,12.44-10.34,29-10.34,29l23.36-.91s8.55-12.69,10.26-17.62S212.73,118,212.73,118Z" opacity="0.08"></path><polygon points="179.76 179.45 171.76 248.72 179.59 248.72 197.08 193.12 216.79 248.74 225.76 248.74 215.01 178.08 179.76 179.45" fill="#24285b"></polygon><path d="M193.09,105.58h4.24s.92-7.83,3.92-9.33,6-4.33,3.33-6.92-6.45-5.58-10.89-2.5S187.69,97.33,193.09,105.58Z" fill="#24285b"></path><path d="M210.63,122.32A10.67,10.67,0,0,1,228,116.53c3.37,2.87,6.71,7.31,9,14.14a71.47,71.47,0,0,0,11.53,21.58,6.24,6.24,0,0,0,10.43-1.1l14-27.74,8.33,4.59s-9.66,41.33-24,45.33C244.52,176.91,203.8,152.85,210.63,122.32Z" fill="#68e1fd"></path><path d="M210.63,122.32A10.67,10.67,0,0,1,228,116.53c3.37,2.87,6.71,7.31,9,14.14a71.47,71.47,0,0,0,11.53,21.58,6.24,6.24,0,0,0,10.43-1.1l14-27.74,8.33,4.59s-9.66,41.33-24,45.33C244.52,176.91,203.8,152.85,210.63,122.32Z" fill="#fff" opacity="0.46"></path><path d="M274.8,124.4s1.53-13.57,4.87-14.65,0,8.2,0,8.2,9.16,1,1.66,10Z" fill="#f4a28c"></path><rect x="61.73" y="156.35" width="49.71" height="62.26" fill="#efefef"></rect><rect x="81.72" y="195.06" width="19.52" height="5.43" opacity="0.08"></rect><rect x="81.72" y="204.72" width="19.52" height="5.43" opacity="0.08"></rect><rect x="73.76" y="195.06" width="5.68" height="5.68" fill="#68e1fd"></rect><rect x="73.76" y="204.47" width="5.68" height="5.68" fill="#ffd200"></rect><circle cx="87.79" cy="175.53" r="12.22" fill="#fff"></circle><path d="M87.79,163.31v12.22l12-2.49S98.09,163.23,87.79,163.31Z" fill="#ffd200"></path><path d="M87.79,175.53,81,185.69s6.85,5.21,14.78-.91a11.91,11.91,0,0,0,4-11.74Z" fill="#24285b"></path><rect x="282.34" y="30.98" width="54.04" height="34.44" fill="#ffd200"></rect><rect x="291.23" y="173.04" width="54.04" height="44.31" fill="#24285b"></rect><rect x="293" y="51.12" width="7.33" height="7.33" fill="#24285b"></rect><rect x="305.35" y="43.25" width="7.33" height="15.21" fill="#24285b"></rect><rect x="318.39" y="37.95" width="7.33" height="20.5" fill="#24285b"></rect><path d="M319.38,180.48c.8,0,1,.28,1,1.08v1.7a7.79,7.79,0,0,1,6.41,4.84c.42.84.24,1.29-.7,1.71l-1.7.76c-.8.39-1.19.21-1.64-.62a4.36,4.36,0,0,0-4.45-2.68c-3,0-4.32.87-4.32,2.85a2.63,2.63,0,0,0,2.4,2.33,20.12,20.12,0,0,0,2.51.39,16.26,16.26,0,0,1,4.63.9,6.27,6.27,0,0,1,2.05,1.11,6.72,6.72,0,0,1,1.85,4.88c0,3.79-2.54,6.37-7,7v1.81c0,.8-.24,1.08-1,1.08h-1.91c-.8,0-1.08-.28-1.08-1.08v-1.78a7.92,7.92,0,0,1-7-5.36c-.27-.76,0-1.28.81-1.6l1.7-.62c.87-.32,1.25-.11,1.64.76q1.14,2.92,4.7,2.93c3.2,0,4.8-1,4.8-3.07a2.14,2.14,0,0,0-1.5-2.16,12,12,0,0,0-3.44-.66,15.23,15.23,0,0,1-4.67-1,6.49,6.49,0,0,1-2-1.15,6.36,6.36,0,0,1-1.88-4.73c0-3.76,2.37-6.27,6.83-6.86v-1.7c0-.8.28-1.08,1.08-1.08Z" fill="#fff"></path></svg>