<svg id="Layer_1" data-name="Layer 1" xmlns="http://www.w3.org/2000/svg" xmlns:xlink="http://www.w3.org/1999/xlink" viewBox="0 0 517.18 461.34" width="406" height="306" class="illustration"><defs><linearGradient id="linear-gradient" x1="1884.6" y1="-953.14" x2="2270.26" y2="-1065.33" gradientTransform="matrix(1.2, -0.42, 0.56, 0.64, -1564.85, 1751.48)" gradientUnits="userSpaceOnUse"><stop offset="0.01"></stop><stop offset="0.13" stop-opacity="0.69"></stop><stop offset="1" stop-opacity="0"></stop></linearGradient><linearGradient id="linear-gradient-2" x1="419.22" y1="143.23" x2="95.99" y2="501.38" gradientTransform="matrix(1, 0, 0, 1, 0, 0)" xlink:href="#linear-gradient"></linearGradient><linearGradient id="linear-gradient-3" x1="1812.48" y1="-928.72" x2="2161.82" y2="-1037.62" xlink:href="#linear-gradient"></linearGradient><linearGradient id="linear-gradient-4" x1="1828.69" y1="-998.04" x2="2214.34" y2="-1110.23" xlink:href="#linear-gradient"></linearGradient><linearGradient id="linear-gradient-5" x1="1756.57" y1="-973.62" x2="2105.91" y2="-1082.53" xlink:href="#linear-gradient"></linearGradient></defs><title>credit card 2</title><path d="M84,50.87C167.73-4.35,287.69,3.05,364,68.16c17.94,15.3,33.58,33.33,52.8,47,16.69,11.86,35.86,20.26,51.08,33.95,31.32,28.16,40.59,74.21,36.48,116.12-7.12,72.64-50.87,140.76-114,177.43-74.19,43.12-169.23,41.27-248.07,7.41-20.26-8.7-39.87-19.49-56.15-34.35-58.32-53.17-47.15-128.34-72.36-195.5C-11,153.9,26.71,88.61,84,50.87Z" transform="translate(-5.87 -13.92)" fill="#3857be" opacity="0.42" style="isolation: isolate;"></path><path d="M510.47,308.26,370.11,390c-8.22,4.79-21.66,4.8-30,0l-235.75-135c-8.35-4.78-8.44-12.54-.22-17.33l140.36-81.69c8.23-4.79,21.66-4.8,30,0l235.75,135C518.6,295.71,518.7,303.47,510.47,308.26Z" transform="translate(-5.87 -13.92)" fill="#3857be"></path><path d="M516.94,299.53,376.59,381.22c-8.23,4.79-21.67,4.8-30,0l-235.75-135c-8.35-4.78-8.45-12.54-.22-17.33L251,147.19c8.23-4.79,21.67-4.8,30,0l235.75,135C525.07,287,525.17,294.74,516.94,299.53Z" transform="translate(-5.87 -13.92)" fill="#3857be"></path><path d="M511.83,302.51,371.48,384.2c-8.23,4.79-21.67,4.8-30,0l-235.75-135c-8.35-4.78-8.44-12.54-.21-17.33l140.35-81.69c8.23-4.79,21.67-4.8,30,0l235.75,135C520,290,520.06,297.72,511.83,302.51Z" transform="translate(-5.87 -13.92)" fill="#3857be"></path><path d="M511.83,302.5,371.47,384.2a22.91,22.91,0,0,1-3.27,1.55c-8.18,3.17-19.42,2.65-26.74-1.53l-235.75-135c-8.34-4.77-8.44-12.53-.22-17.32l64.31-37.42,76-44.27c8.22-4.79,21.66-4.8,30,0l235.74,135C520,290,520.06,297.72,511.83,302.5Z" transform="translate(-5.87 -13.92)" opacity="0.58" fill="url(#linear-gradient)"></path><polygon points="229.47 142.61 496.25 293.38 448.95 320.98 183.86 168.51 229.47 142.61" opacity="0.58" fill="url(#linear-gradient-2)"></polygon><path d="M432.51,348.32,368.2,385.75c-8.18,3.17-19.42,2.65-26.74-1.53l-235.75-135c-8.34-4.77-8.44-12.53-.22-17.32l64.31-37.42c8.17-3.17,19.42-2.65,26.74,1.53L432.29,331C440.63,335.78,440.73,343.54,432.51,348.32Z" transform="translate(-5.87 -13.92)" opacity="0.58" fill="url(#linear-gradient-3)"></path><path d="M280.92,211.44,250.72,229c-4.56,2.66-12,2.66-16.64,0l-37-21.19c-4.63-2.65-4.68-7-.12-9.61l30.2-17.58c4.56-2.65,12-2.66,16.64,0l37,21.19C285.43,204.49,285.48,208.79,280.92,211.44Z" transform="translate(-5.87 -13.92)" fill="#fdb523"></path><path d="M261.41,222.6l-5,2.88L241,216.64a15.87,15.87,0,0,1-8.2.84l-.74-.14-.58-.32c-1.29-.7-12.75-6.9-15.35-8.81-2.76-2-1.33-5,0-6.84l-12.29-7,5-2.88,16,9.17L223.51,202c-1.42,1.49-2.17,3.32-1.78,3.76,1.59,1.17,8.78,5.18,13.73,7.87a5.69,5.69,0,0,0,2.89-1.09l2.45-1.72Z" transform="translate(-5.87 -13.92)" fill="#efa92b"></path><path d="M270.65,217.21l5-2.88-15.44-8.84c2.14-1.86,2-3.75,1.39-4.74l-.25-.43-.54-.33c-1.23-.74-12.07-7.3-15.39-8.79-3.53-1.58-8.72-.73-11.85,0l-12.29-7-5,2.88,16,9.17,2.33-.75c2.58-.83,5.74-1.28,6.51-1.06,2,.91,9,5,13.73,7.86-.07.35-.4,1-1.86,1.68l-2.95,1.43Z" transform="translate(-5.87 -13.92)" fill="#efa92b"></path><polygon points="261 205.71 259.95 206.32 206.31 175.59 207.35 174.98 261 205.71" fill="#efa92b"></polygon><polygon points="244.61 215.25 243.56 215.85 189.92 185.13 190.97 184.52 244.61 215.25" fill="#efa92b"></polygon><polygon points="277.38 196.17 276.34 196.78 222.69 166.05 223.74 165.44 277.38 196.17" fill="#efa92b"></polygon><text transform="matrix(0.88, 0.5, -0.86, 0.5, 283.99, 213.78)" font-size="17.19" fill="#3857be" font-family="Roboto-Bold, Roboto" font-weight="700">CREDIT CARD</text><path d="M245.9,297.59,130.79,231.13c-2.55-1.47-2.23-4,.71-5.75h0c2.94-1.7,7.4-1.88,9.95-.41l115.11,66.46c2.55,1.47,2.23,4-.72,5.74h0C252.9,298.87,248.45,299.06,245.9,297.59Z" transform="translate(-5.87 -13.92)" fill="#3857be"></path><path d="M418.31,303,278,384.68c-8.23,4.79-21.67,4.8-30,0l-235.76-135c-8.34-4.78-8.44-12.54-.21-17.33l140.35-81.69c8.23-4.79,21.67-4.8,30,0l235.75,135C426.44,290.44,426.54,298.2,418.31,303Z" transform="translate(-5.87 -13.92)" fill="#3857be"></path><path d="M419.67,297.24,279.32,378.93c-8.23,4.79-21.67,4.79-30,0l-235.75-135c-8.35-4.78-8.45-12.54-.22-17.33L153.69,144.9c8.23-4.79,21.67-4.8,30,0l235.75,135C427.81,284.69,427.9,292.45,419.67,297.24Z" transform="translate(-5.87 -13.92)" fill="#3857be"></path><path d="M419.68,297.23,279.32,378.92a22.4,22.4,0,0,1-3.27,1.56c-8.18,3.17-19.43,2.65-26.75-1.53l-235.75-135c-8.34-4.78-8.44-12.53-.21-17.32l64.3-37.42,76.05-44.27c8.23-4.79,21.66-4.8,30,0l235.75,135C427.8,284.69,427.9,292.44,419.68,297.23Z" transform="translate(-5.87 -13.92)" opacity="0.58" fill="url(#linear-gradient-4)"></path><path d="M340.35,343.05l-64.3,37.43c-8.18,3.17-19.43,2.65-26.75-1.53l-235.75-135c-8.34-4.78-8.44-12.53-.21-17.32l64.3-37.42c8.18-3.17,19.42-2.65,26.74,1.53l235.75,135C348.47,330.51,348.57,338.27,340.35,343.05Z" transform="translate(-5.87 -13.92)" opacity="0.58" fill="url(#linear-gradient-5)"></path><path d="M188.76,206.17l-30.19,17.58c-4.56,2.65-12,2.66-16.65,0l-37-21.19c-4.63-2.66-4.69-7-.12-9.61L135,175.38c4.57-2.66,12-2.66,16.65,0l37,21.19C193.27,199.21,193.33,203.52,188.76,206.17Z" transform="translate(-5.87 -13.92)" fill="#fdb523"></path><path d="M169.25,217.32l-4.95,2.89-15.43-8.84a16,16,0,0,1-8.2.84l-.75-.15-.57-.31c-1.3-.7-12.75-6.9-15.35-8.81-2.76-2-1.34-5,0-6.84l-12.28-7,4.95-2.88,16,9.16-1.29,1.35c-1.41,1.5-2.16,3.33-1.78,3.77,1.59,1.17,8.78,5.18,13.73,7.87a5.81,5.81,0,0,0,2.9-1.09l2.45-1.72Z" transform="translate(-5.87 -13.92)" fill="#efa92b"></path><path d="M178.5,211.94l4.95-2.88L168,200.22c2.13-1.87,2-3.75,1.39-4.74l-.26-.43-.54-.33c-1.22-.74-12.06-7.3-15.39-8.79-3.53-1.58-8.71-.73-11.85,0l-12.29-7-5,2.88,16,9.17,2.32-.76c2.58-.82,5.74-1.27,6.52-1.05,2,.91,9,5,13.73,7.86-.07.35-.4,1-1.87,1.68l-3,1.43Z" transform="translate(-5.87 -13.92)" fill="#efa92b"></path><polygon points="168.84 200.44 167.8 201.04 114.15 170.32 115.2 169.71 168.84 200.44" fill="#efa92b"></polygon><polygon points="152.45 209.97 151.41 210.58 97.76 179.86 98.81 179.25 152.45 209.97" fill="#efa92b"></polygon><polygon points="185.23 190.9 184.18 191.51 130.54 160.78 131.59 160.17 185.23 190.9" fill="#efa92b"></polygon><text transform="matrix(0.88, 0.5, -0.86, 0.5, 191.83, 208.5)" font-size="17.19" fill="#3857be" font-family="Roboto-Bold, Roboto" font-weight="700">CREDIT CARD</text><path d="M288.24,348.7,57.05,215.22c-2.55-1.47-2.23-4,.71-5.74h0c2.94-1.7,7.4-1.88,9.95-.41L298.9,342.55c2.55,1.47,2.23,4-.72,5.74h0C295.24,350,290.79,350.17,288.24,348.7Z" transform="translate(-5.87 -13.92)" fill="#3857be"></path><path d="M153.74,292.32,38.63,225.86c-2.55-1.48-2.23-4.05.71-5.75h0c2.95-1.7,7.4-1.88,9.95-.41L164.4,286.16c2.55,1.47,2.23,4-.71,5.74h0C160.74,293.6,156.29,293.79,153.74,292.32Z" transform="translate(-5.87 -13.92)" fill="#3857be"></path><path d="M270.9,360l-83.37-48.12c-2.55-1.48-2.23-4.05.72-5.75h0c2.94-1.7,7.4-1.88,9.95-.41l83.36,48.13c2.55,1.47,2.23,4-.72,5.74h0C277.9,361.24,273.44,361.43,270.9,360Z" transform="translate(-5.87 -13.92)" fill="#3857be"></path></svg>