<svg id="Layer_1" data-name="Layer 1" xmlns="http://www.w3.org/2000/svg" viewBox="0 0 400 300" width="406" height="306" class="illustration"><path d="M140.09,47.9c-45,10.71-80.56,44.51-91,88-7.76,32.35-1,65.71,51.25,77.84C213.21,240,335.11,231.3,349.72,178.85s-12.5-142.45-77-148C235.94,27.67,180.78,38.22,140.09,47.9Z" fill="#e6e6e6" opacity="0.3"></path><path d="M246.64,104.93c0,6.16-5.91,6.48-13.2,6.48s-13.19-.32-13.19-6.48,5.9-15.85,13.19-15.85S246.64,98.76,246.64,104.93Z" fill="#ededed"></path><path d="M220.25,116a37.77,37.77,0,0,1,3.37-4.54c1.52-1.6,7.12-4,7.74-2.93s-2.76,2.31-2.76,2.31,13.87-3.38,13.34-.8-12.26,2.81-14.13,7.09-.9,2.24-.9,2.24Z" fill="#f4a28c"></path><path d="M197.13,186.69,95.19,186.2s-19.89-55.56-7.77-74.94C96.12,97.33,128.89,94,151.15,100c8.74,2.34,15.85,6.12,19.26,11.24,10.29,15.48,22.43,59.25,25.82,71.94C196.8,185.43,197.13,186.69,197.13,186.69Z" fill="#ffd200"></path><path d="M197.13,186.69,95.19,186.2s-19.89-55.56-7.77-74.94C96.12,97.33,128.89,94,151.15,100c8.74,2.34,15.85,6.12,19.26,11.24,10.29,15.48,22.43,59.25,25.82,71.94C196.8,185.43,197.13,186.69,197.13,186.69Z" opacity="0.08"></path><path d="M196.23,183.2l-88.17-.41s-18.66-52.16-7.29-70.35c7-11.21,30.62-15.09,50.38-12.42,8.74,2.34,15.85,6.12,19.26,11.24C180.7,126.74,192.84,170.51,196.23,183.2Z" fill="#ffd200"></path><path d="M144.1,58.68c-3.49-.39-6.75,2.29-8.14,5.51a11.12,11.12,0,0,0,1.55,11.49,5.85,5.85,0,0,0,3.59,2.15,5.76,5.76,0,0,0,2.53-.34c3.72-1.3,6.37-5.92,7.19-9.62C151.7,63.88,148.1,59.12,144.1,58.68Z" fill="#24285b"></path><path d="M147.49,100.5c1.11-1.88,3.26-6.69,2.09-14.15l6.11.08s2.8,11.07,5.84,13.35l-.05.07Z" fill="#f4a28c"></path><path d="M147.49,100.5c1.11-1.88,3.26-6.69,2.09-14.15l6.11.08s2.8,11.07,5.84,13.35l-.05.07Z" opacity="0.09"></path><path d="M158.74,76.85s2,13.45-5,15.09-7-14-7-14-.34-8.15,3.74-9.36S159.12,67,158.74,76.85Z" fill="#f4a28c"></path><path d="M159,80s3.58-1.3,3.48.59.65,4.37-3.63,3.47Z" fill="#f4a28c"></path><path d="M147.67,79.82s-4.36-.77-4,1.1.56,4.35,4.69,2.91Z" fill="#f4a28c"></path><path d="M159.42,79.51a1,1,0,0,1-.87.31A2,2,0,0,1,157.5,79a10,10,0,0,1-2.23-5.86,14.07,14.07,0,0,1-1.75,4.32,5.93,5.93,0,0,1-3.7,2.67c-4.56.88-4.73-4.35-4.67-7.52,0-2.06.29-4.45,1.85-6a3.8,3.8,0,0,1,2.39-1c1.11-.2,2.14-.68,3.27-.81a6,6,0,0,1,3.75.7,6.91,6.91,0,0,1,2.21,2.35,13.2,13.2,0,0,1,1.52,10A3.36,3.36,0,0,1,159.42,79.51Z" fill="#24285b"></path><path d="M171.39,104.38c.42.31,33.64,33.9,36.27,32.44s11.74-23.2,11.74-23.2l9.2,3.82s-8.6,46.47-18.1,44.84S177,147,177,147Z" fill="#3857be"></path><path d="M171.39,104.38c.42.31,33.64,33.9,36.27,32.44s11.74-23.2,11.74-23.2l9.2,3.82s-8.6,46.47-18.1,44.84S177,147,177,147Z" fill="#fff" opacity="0.46"></path><path d="M131.83,146.91c2.81,9.84,6.09,19.54,8.79,27.06,16.31.48,39.43,5,39.9-.38.27-2.91-3.74-2.65-2.59-6.67.68-2.38,3.26-13.72,4.39-16.39,6.17-14.57,2.75-30.15-4.26-39.5-11.67-15.54-33.53-16.84-48.35-8.52C122.49,106.56,126.16,127,131.83,146.91Z" fill="#3857be"></path><path d="M161,99.15c.7.47,9.65,21.12,4.4,47.86,0,0-7.66-36.56-15.39-49.85C150,97.16,157.17,97.3,161,99.15Z" fill="#24285b"></path><path d="M129.49,152.46l5.29,21,5.84.5,39.89,3.42c.26-2.91-3.73-6.45-2.58-10.47-14.36-2.45-31.63-6.22-25.21-25.18,7.07-20.87-3.77-35.29-3.77-35.29l-17.12,40.46Z" opacity="0.08"></path><path d="M149.56,108.91a11,11,0,0,0-13.5-9.28c-8.45,2.1-19.07,8.74-20.65,28.66-2.69,33.81,6.88,49.77,6.88,49.77h52.92v-6.68l-36.76-4.49S152.46,132.21,149.56,108.91Z" fill="#3857be"></path><path d="M149.56,108.91a11,11,0,0,0-13.5-9.28c-8.45,2.1-19.07,8.74-20.65,28.66-2.69,33.81,6.88,49.77,6.88,49.77h52.92v-6.68l-36.76-4.49S152.46,132.21,149.56,108.91Z" fill="#fff" opacity="0.46"></path><rect x="60.44" y="184.2" width="272.17" height="85.54" fill="#c9c9c9"></rect><rect x="60.44" y="177.84" width="272.17" height="11.63" fill="#e6e6e6"></rect><path d="M72.29,170s-6.2-1.69-7.54-7.46c0,0,9.6-1.94,9.88,8Z" fill="#3857be" opacity="0.58"></path><path d="M73.05,169.37s-4.33-6.85-.52-13.25c0,0,7.31,4.64,4.06,13.26Z" fill="#3857be" opacity="0.73"></path><path d="M74.17,169.37s2.29-7.23,9.21-8.6c0,0,1.29,4.7-4.48,8.62Z" fill="#3857be"></path><polygon points="69.67 169.21 70.93 177.81 78.85 177.84 80.01 169.25 69.67 169.21" fill="#24285b"></polygon><path d="M175.13,171.6s4.21-2.67,8-2.25,13.65,2.39,10.61,4.07-7.77.14-9.68,1.41-8.37,4.77-9.92,1.68A3.82,3.82,0,0,1,175.13,171.6Z" fill="#f4a28c"></path><polygon points="206.36 150.96 197.38 173.24 183.98 173.24 183.98 177.84 228.04 177.84 228.04 173.24 237.03 150.96 206.36 150.96" fill="#c9c9c9"></polygon><path d="M182.59,123.76c-.4,0-11.2-.67-11.2-.67v7.6l10.67.67Z" fill="#fff"></path><rect x="248.63" y="161.29" width="34.5" height="16.55" fill="#ededed"></rect><rect x="258.17" y="164.93" width="24.96" height="0.66" opacity="0.08"></rect><rect x="256.03" y="174.16" width="24.96" height="0.66" opacity="0.08"></rect><rect x="248.63" y="169.32" width="23.3" height="0.5" opacity="0.08"></rect><rect x="263.23" y="161.29" width="5.3" height="16.55" fill="#3857be"></rect><rect x="251.26" y="145.72" width="34.5" height="16.55" fill="#ededed"></rect><rect x="260.8" y="149.36" width="24.96" height="0.66" opacity="0.08"></rect><rect x="258.66" y="158.6" width="24.96" height="0.66" opacity="0.08"></rect><rect x="251.26" y="153.75" width="23.3" height="0.5" opacity="0.08"></rect><rect x="265.86" y="145.72" width="5.3" height="16.55" fill="#3857be"></rect><rect x="248.61" y="129.17" width="34.5" height="16.55" fill="#ededed"></rect><rect x="258.15" y="132.81" width="24.96" height="0.66" opacity="0.08"></rect><rect x="256.01" y="142.04" width="24.96" height="0.66" opacity="0.08"></rect><rect x="248.61" y="137.2" width="23.3" height="0.5" opacity="0.08"></rect><rect x="263.21" y="129.17" width="5.3" height="16.55" fill="#3857be"></rect><rect x="292.73" y="161.29" width="34.5" height="16.55" fill="#ededed"></rect><rect x="302.27" y="164.93" width="24.96" height="0.66" opacity="0.08"></rect><rect x="300.13" y="174.16" width="24.96" height="0.66" opacity="0.08"></rect><rect x="292.73" y="169.32" width="23.3" height="0.5" opacity="0.08"></rect><rect x="307.33" y="161.29" width="5.3" height="16.55" fill="#3857be"></rect><rect x="289.76" y="145.72" width="34.5" height="16.55" fill="#ededed"></rect><rect x="299.3" y="149.36" width="24.96" height="0.66" opacity="0.08"></rect><rect x="297.16" y="158.6" width="24.96" height="0.66" opacity="0.08"></rect><rect x="289.76" y="153.75" width="23.3" height="0.5" opacity="0.08"></rect><rect x="304.36" y="145.72" width="5.3" height="16.55" fill="#3857be"></rect><rect x="253.63" y="112.61" width="34.5" height="16.55" fill="#ededed"></rect><rect x="263.17" y="116.25" width="24.96" height="0.66" opacity="0.08"></rect><rect x="261.03" y="125.49" width="24.96" height="0.66" opacity="0.08"></rect><rect x="253.63" y="120.64" width="23.3" height="0.5" opacity="0.08"></rect><rect x="268.23" y="112.61" width="5.3" height="16.55" fill="#3857be"></rect><rect x="290.95" y="129.17" width="34.5" height="16.55" fill="#ededed"></rect><rect x="300.49" y="132.81" width="24.96" height="0.66" opacity="0.08"></rect><rect x="298.35" y="142.04" width="24.96" height="0.66" opacity="0.08"></rect><rect x="290.95" y="137.2" width="23.3" height="0.5" opacity="0.08"></rect><rect x="305.55" y="129.17" width="5.3" height="16.55" fill="#3857be"></rect><path d="M200,203c0,1.63,0,3.25,0,4.87,0,.31.09.42.4.49a14.49,14.49,0,0,1,6.51,3,10.45,10.45,0,0,1,3.68,6.44c.12.69.17,1.39.26,2.12H203.3a5.08,5.08,0,0,0-1.12-3.12,22.74,22.74,0,0,0-2-1.76l-.13.11v9.37l.81.2a26.78,26.78,0,0,1,5.91,1.89,8.55,8.55,0,0,1,5.12,7.14,11.15,11.15,0,0,1-2,8.17,11.28,11.28,0,0,1-5.59,4.15c-1.39.48-2.84.8-4.33,1.21v3.65h-6.93v-3.76c-1.4-.38-2.74-.67-4-1.11a11.71,11.71,0,0,1-6.18-4.63,11.42,11.42,0,0,1-1.78-6.43h7.41c.34,2.75,1.68,4.72,4.54,5.49V230.43c-1.41-.4-2.82-.78-4.22-1.22a10.72,10.72,0,0,1-4.53-2.53,8.54,8.54,0,0,1-2.39-4.67,12,12,0,0,1,.46-6.45,10.76,10.76,0,0,1,6.51-6.46,33,33,0,0,1,3.74-1,4.17,4.17,0,0,1,.46-.09V203Zm0,37.6a6,6,0,0,0,3.11-1.35,4,4,0,0,0,.64-5.29c-1-1.17-2.39-1.48-3.75-2Zm-6.95-26.11a20.63,20.63,0,0,0-2.66,1.36,3.71,3.71,0,0,0-.44,5.64,8.15,8.15,0,0,0,3.1,1.39Z" fill="#e6e6e6"></path><path d="M234.19,95.08v1c0,.07,0,.09.08.1a3.18,3.18,0,0,1,1.4.66,2.25,2.25,0,0,1,.8,1.38c0,.15,0,.3.05.46H234.9a1.06,1.06,0,0,0-.24-.67,4,4,0,0,0-.44-.38l0,0v2l.17,0a6.08,6.08,0,0,1,1.27.41,1.86,1.86,0,0,1,1.11,1.54,2.41,2.41,0,0,1-1.63,2.65c-.3.11-.61.18-.93.27v.78H232.7v-.81c-.3-.08-.59-.14-.87-.24a2.42,2.42,0,0,1-1.72-2.38h1.6a1.25,1.25,0,0,0,1,1.18V101l-.91-.26a2.28,2.28,0,0,1-1-.55,1.82,1.82,0,0,1-.51-1,2.53,2.53,0,0,1,.1-1.39,2.27,2.27,0,0,1,1.4-1.39,7.4,7.4,0,0,1,.81-.21l.09,0V95.08Zm0,8.1a1.29,1.29,0,0,0,.67-.29.87.87,0,0,0,.14-1.14,1.77,1.77,0,0,0-.81-.43Zm-1.5-5.62a4.34,4.34,0,0,0-.57.29.8.8,0,0,0-.1,1.21,1.63,1.63,0,0,0,.67.3Z" fill="#c9c9c9"></path><circle cx="217.08" cy="162.28" r="4.05" fill="#e6e6e6"></circle><rect x="295.33" y="125.82" width="11.34" height="3.35" fill="#ffd200"></rect><rect x="296.46" y="122.47" width="11.34" height="3.35" fill="#ffd200"></rect><rect x="294.52" y="119.12" width="11.34" height="3.35" fill="#ffd200"></rect><rect x="293.03" y="115.77" width="11.34" height="3.35" fill="#ffd200"></rect><rect x="295.33" y="112.42" width="11.34" height="3.35" fill="#ffd200"></rect><rect x="311.98" y="125.82" width="11.34" height="3.35" transform="translate(635.31 254.99) rotate(-180)" fill="#ffd200"></rect><rect x="310.85" y="122.47" width="11.34" height="3.35" transform="translate(633.04 248.29) rotate(-180)" fill="#ffd200"></rect><rect x="309.24" y="119.12" width="11.34" height="3.35" transform="translate(629.82 241.59) rotate(-180)" fill="#ffd200"></rect><rect x="310.31" y="115.77" width="11.34" height="3.35" transform="translate(631.96 234.89) rotate(-180)" fill="#ffd200"></rect><circle cx="150.95" cy="80.04" r="3.19" fill="#fff"></circle><circle cx="157.32" cy="80.04" r="3.19" fill="#fff"></circle><path d="M231.42,89.65s-3.08-5.73-2.93-6.8,2.45,0,2.45,0,.56-2.22,1.9-1.51,3.71-1.88,4.66-.14-2.37,8-2.37,8Z" fill="#ededed"></path><rect x="229.92" y="87.88" width="6.32" height="1.78" rx="0.89" fill="#c9c9c9"></rect></svg>