<svg id="Layer_1" data-name="Layer 1" xmlns="http://www.w3.org/2000/svg" viewBox="0 0 400 300" width="406" height="306" class="illustration"><title>#95_profile analysis_twocolour</title><rect x="78.01" y="67.82" width="243.99" height="171.63" fill="#e6e6e6"></rect><circle cx="99.48" cy="84.94" r="4.62" fill="#24285b"></circle><circle cx="113.23" cy="84.94" r="4.62" fill="#3857be"></circle><circle cx="126.19" cy="84.94" r="4.62" fill="#ffd200"></circle><path d="M210.58,108.81s10.26-2.14,5.18,16,.7,36.34,15.06,39.15,35,10.24,38.51,32.78-14,42.72-14,42.72H189.85l6.66-111.73S194.9,106.19,210.58,108.81Z" opacity="0.08"></path><path d="M205.85,115s.34,7.35-1.1,12.17a3.69,3.69,0,0,1-4.62,2.48c-2.41-.76-5.46-2.48-6.12-6.4l-1.94-6.51a6.61,6.61,0,0,1,3.2-6.94C199.54,107,205.87,110.53,205.85,115Z" fill="#f4a28c"></path><polygon points="192.58 120.08 189.85 144.05 203.16 144.61 199.81 126.95 192.58 120.08" fill="#f4a28c"></polygon><path d="M204,115.25a29.57,29.57,0,0,1-6.75-.8,6.14,6.14,0,0,1-.28,6.73,5,5,0,0,1-6.11,1.74l.5-9.44a7.52,7.52,0,0,1,4.07-6.52,28.28,28.28,0,0,1,3.22-1.42c2.77-1,6.68,1,9.19-.73a1.78,1.78,0,0,1,2.77,1.27c.3,2.89-.4,7.4-4.35,8.81A6.9,6.9,0,0,1,204,115.25Z" fill="#24285b"></path><path d="M197.78,121s.06-2.83-2.08-2.7-2.25,4.22.63,4.72Z" fill="#f4a28c"></path><path d="M205.82,119.66l1.94,2.92a1.18,1.18,0,0,1-.82,1.81l-2.83.42Z" fill="#f4a28c"></path><path d="M200.13,129.67l-5.32-3.58s.19,4.46,6,7.49Z" fill="#ce8172" opacity="0.31"></path><path d="M146.38,173.42A30.8,30.8,0,0,1,176,144.08c19-.68,37.36-4.25,57.08,6.22,28.2,15-3,89.16-3,89.16l-65.13.78S144.61,211.2,146.38,173.42Z" fill="#3857be"></path><rect x="296.35" y="181.89" width="51.3" height="37.45" fill="#24285b"></rect><rect x="255.28" y="38.7" width="99.15" height="114.94" fill="#f7f7f7"></rect><rect x="255.28" y="153.82" width="66.72" height="12.71" opacity="0.08"></rect><path d="M318.64,207.91h-.07a1.5,1.5,0,0,1-1.12-.58l-5.09-6.55a1.5,1.5,0,1,1,2.38-1.84l4,5.14,9.86-10.65a1.5,1.5,0,1,1,2.2,2l-11.06,12A1.51,1.51,0,0,1,318.64,207.91Z" fill="#fff"></path><path d="M305.93,115.14a30.2,30.2,0,1,1,30.19-30.2A30.23,30.23,0,0,1,305.93,115.14Zm0-52.25a22.06,22.06,0,1,0,22.06,22A22.08,22.08,0,0,0,305.93,62.89Z" fill="#c9c9c9"></path><path d="M305.93,115.14a30.13,30.13,0,0,1-20-7.6l5.39-6.09A22.05,22.05,0,0,0,305.93,107Z" fill="#24285b"></path><path d="M233.09,150.3s34.13,18.15,27.3,59.64-100.32-4.72-100.32-4.72l3.67-12.11s43.07,14.21,68.29,11.06C232,204.17,199.49,153.69,233.09,150.3Z" fill="#3857be"></path><path d="M178.32,161.08s15,12.07,7.31,32.29,24.08,33,49,33.86l-4.57,12.23-65.13.78s-6.18-11.24-8.55-15.92S144.3,158.47,178.32,161.08Z" opacity="0.08"></path><path d="M193.33,218.8s30.41-23,54.12-20.4c0,0,5.94,9.15-7.1,12s-27.92,13.88-27.92,13.88Z" opacity="0.08"></path><path d="M233.09,150.3s34.13,18.15,27.3,59.64-100.32-4.72-100.32-4.72l3.67-12.11s43.07,14.21,68.29,11.06C232,204.17,199.49,153.69,233.09,150.3Z" fill="#fff" opacity="0.39"></path><path d="M336.12,84.94H328a22.08,22.08,0,0,0-22.06-22V54.75A30.23,30.23,0,0,1,336.12,84.94Z" fill="#3857be"></path><path d="M305.93,115.14V107A22.08,22.08,0,0,0,328,84.94h8.13A30.24,30.24,0,0,1,305.93,115.14Z" fill="#ffd200"></path><rect x="288.87" y="126.53" width="34.1" height="14.08" fill="#3857be"></rect><path d="M163.22,147.38s-34.13,18.15-27.3,59.65,100.32-4.73,100.32-4.73l-3.67-12.11s-43.07,14.21-68.29,11.06C164.28,201.25,196.82,150.77,163.22,147.38Z" fill="#3857be"></path><path d="M163.22,147.38s-34.13,18.15-27.3,59.65,100.32-4.73,100.32-4.73l-3.67-12.11s-43.07,14.21-68.29,11.06C164.28,201.25,196.82,150.77,163.22,147.38Z" fill="#fff" opacity="0.39"></path><path d="M233.14,192.08s10.81-3.61,14,3.57-10.86,6.65-10.86,6.65Z" fill="#f4a28c"></path><path d="M184.24,143.65s-1.31-5.69,4.21-6,19.78-4.2,22.23,5.26Z" fill="#3857be"></path><rect x="78.08" y="121.93" width="48.87" height="52.09" opacity="0.08"></rect><path d="M184.24,143.65s-1.31-5.69,4.21-6,19.78-4.2,22.23,5.26Z" fill="#fff" opacity="0.39"></path><path d="M306.59,75.18c.54,0,.7.18.7.72V77a5.22,5.22,0,0,1,4.29,3.24c.28.56.16.86-.47,1.14l-1.14.52c-.54.25-.79.14-1.09-.42a2.93,2.93,0,0,0-3-1.8c-2,0-2.89.59-2.89,1.91,0,.87.79,1.4,1.61,1.57a13.79,13.79,0,0,0,1.68.25,10.94,10.94,0,0,1,3.1.61,4.3,4.3,0,0,1,1.37.74A4.5,4.5,0,0,1,312,88.07c0,2.54-1.7,4.26-4.71,4.71V94c0,.54-.16.72-.7.72h-1.28c-.54,0-.72-.18-.72-.72V92.8a5.3,5.3,0,0,1-4.67-3.59.76.76,0,0,1,.54-1.07l1.14-.42c.58-.21.84-.07,1.1.51a3,3,0,0,0,3.14,2c2.15,0,3.22-.68,3.22-2a1.43,1.43,0,0,0-1-1.45,8.09,8.09,0,0,0-2.31-.44,10.44,10.44,0,0,1-3.12-.68A3.79,3.79,0,0,1,300,81.63c0-2.51,1.58-4.19,4.57-4.59V75.9c0-.54.18-.72.72-.72Z" fill="#a5a5a5"></path><rect x="49.99" y="121.93" width="65.94" height="42.02" fill="#ffd200"></rect><rect x="63" y="146.51" width="8.94" height="8.94" fill="#24285b"></rect><rect x="78.08" y="136.9" width="8.94" height="18.55" fill="#24285b"></rect><rect x="93.98" y="130.44" width="8.94" height="25.01" fill="#24285b"></rect><rect x="45.54" y="209.48" width="58.57" height="39.92" fill="#f7f7f7"></rect><polygon points="45.54 209.48 74.82 237.5 104.1 209.48 45.54 209.48" fill="#c9c9c9"></polygon><rect x="104.1" y="209.48" width="11.83" height="29.97" opacity="0.08"></rect></svg>